Coordinates
version=1
nRows=10
nColumns=40
inDegrees=yes

Units are S.I. units (second, meters, Newtons, ...)
If the header above contains a line with 'inDegrees', this indicates whether rotational values are in degrees (yes) or radians (no).

endheader
time	pelvis_tilt	pelvis_list	pelvis_rotation	pelvis_tx	pelvis_ty	pelvis_tz	hip_flexion_r	hip_adduction_r	hip_rotation_r	knee_angle_r	knee_angle_r_beta	ankle_angle_r	subtalar_angle_r	mtp_angle_r	hip_flexion_l	hip_adduction_l	hip_rotation_l	knee_angle_l	knee_angle_l_beta	ankle_angle_l	subtalar_angle_l	mtp_angle_l	lumbar_extension	lumbar_bending	lumbar_rotation	arm_flex_r	arm_add_r	arm_rot_r	elbow_flex_r	pro_sup_r	wrist_flex_r	wrist_dev_r	arm_flex_l	arm_add_l	arm_rot_l	elbow_flex_l	pro_sup_l	wrist_flex_l	wrist_dev_l
      1.27500000	     -8.69397186	     10.78850972	     -1.72454645	     -2.53449447	      0.96437422	      0.26564774	    -21.54589555	    -11.27832979	     -6.02664526	     12.86163953	      0.22447796	    -20.59479442	      0.00000000	      0.00000000	     57.18834887	      5.01452694	    -10.84901914	     71.01082471	      1.23937270	      6.26191795	      0.00000000	      0.00000000	    -21.42876601	    -15.99669117	     14.38321435	     10.59347070	    -21.07547419	     10.95695779	    131.97588188	     88.26235746	      0.00000000	      0.00000000	    -45.47259803	    -23.15695928	    -21.40042291	    107.37957678	      1.35072099	      0.00000000	      0.00000000
      1.28000000	     -8.89240869	     11.04885744	     -1.65904938	     -2.50942607	      0.96595572	      0.26541715	    -22.13678796	    -11.54314264	     -5.83580924	     13.10786655	      0.22877543	    -22.45321063	      0.00000000	      0.00000000	     56.86199738	      5.45006737	    -10.55056631	     67.15944797	      1.17215349	      6.13857511	      0.00000000	      0.00000000	    -21.10281968	    -16.60426248	     14.59622916	      9.80782348	    -21.70607461	     11.67415948	    131.99455112	     88.31733123	      0.00000000	      0.00000000	    -45.63569591	    -23.33495532	    -21.60100689	    108.17087904	      1.39819849	      0.00000000	      0.00000000
      1.28500000	     -9.00319203	     11.17206880	     -1.63252946	     -2.48436680	      0.96751550	      0.26524990	    -22.70868496	    -11.65292874	     -5.43551709	     13.57775559	      0.23697654	    -23.77465296	      0.00000000	      0.00000000	     56.30727489	      5.75664586	    -10.16081104	     63.29518704	      1.10470941	      6.19825504	      0.00000000	      0.00000000	    -20.89298812	    -17.09040071	     14.78282577	      9.00891622	    -22.39078073	     12.38950068	    131.86492998	     88.35274034	      0.00000000	      0.00000000	    -45.76714364	    -23.42628979	    -21.76294236	    109.08291490	      1.38721901	      0.00000000	      0.00000000
      1.29000000	     -9.03758173	     11.17230706	     -1.63276816	     -2.45930499	      0.96903275	      0.26511383	    -23.23824794	    -11.62454423	     -4.86370423	     14.30777617	      0.24971780	    -24.57042399	      0.00000000	      0.00000000	     55.54140905	      5.95108904	     -9.70097841	     59.43720978	      1.03737501	      6.46048439	      0.00000000	      0.00000000	    -20.75316261	    -17.42500062	     14.98183310	      8.14395649	    -23.03541279	     13.06461801	    131.40536931	     88.38769830	      0.00000000	      0.00000000	    -45.65276037	    -23.46032008	    -21.87912585	    109.77311680	      1.39962778	      0.00000000	      0.00000000
      1.29500000	     -8.98091700	     11.03999690	     -1.63598413	     -2.43423868	      0.97049005	      0.26498621	    -23.75809031	    -11.43684958	     -4.15934779	     15.26758223	      0.26646958	    -24.94210396	      0.00000000	      0.00000000	     54.56518060	      6.03974417	     -9.17359196	     55.62550449	      0.97084820	      6.89838574	      0.00000000	      0.00000000	    -20.71866354	    -17.60809983	     15.15034748	      7.24111714	    -23.68300738	     13.70974065	    130.72234516	     88.42152181	      0.00000000	      0.00000000	    -45.42212380	    -23.45331361	    -21.90155832	    110.44641356	      1.37919435	      0.00000000	      0.00000000
      1.30000000	     -8.81996242	     10.78486180	     -1.61686723	     -2.40916187	      0.97189097	      0.26483124	    -24.28986391	    -11.09435643	     -3.39508465	     16.44570412	      0.28703168	    -24.99488322	      0.00000000	      0.00000000	     53.37873616	      6.04130900	     -8.60024849	     51.89102302	      0.90566920	      7.50226152	      0.00000000	      0.00000000	    -20.80900156	    -17.63483279	     15.26906210	      6.27036213	    -24.27899651	     14.24928373	    129.77818529	     88.45179881	      0.00000000	      0.00000000	    -44.98425365	    -23.35925459	    -21.91636552	    111.01014482	      1.39063148	      0.00000000	      0.00000000
      1.30500000	     -8.56336148	     10.43085066	     -1.58477045	     -2.38410586	      0.97320997	      0.26464610	    -24.78491608	    -10.63722728	     -2.61407048	     17.91025399	      0.31259290	    -24.77214958	      0.00000000	      0.00000000	     52.00984091	      5.95229824	     -8.04019812	     48.26842923	      0.84244301	      8.22099589	      0.00000000	      0.00000000	    -21.01579633	    -17.53564174	     15.34100219	      5.31272688	    -24.88003745	     14.73388879	    128.59527227	     88.46316352	      0.00000000	      0.00000000	    -44.43069525	    -23.31401952	    -21.78715031	    111.54117314	      1.37548184	      0.00000000	      0.00000000
      1.31000000	     -8.21064923	      9.96704230	     -1.49088501	     -2.35903546	      0.97443578	      0.26437396	    -25.27724870	    -10.03632643	     -1.90377558	     19.59494141	      0.34199624	    -24.40501543	      0.00000000	      0.00000000	     50.48067029	      5.79517884	     -7.47139777	     44.80789514	      0.78204530	      9.00332397	      0.00000000	      0.00000000	    -21.33444141	    -17.26869088	     15.37335322	      4.27417337	    -25.41625212	     15.10010063	    127.15984802	     88.45933606	      0.00000000	      0.00000000	    -43.67229576	    -23.29570208	    -21.49165484	    111.94313238	      1.34773778	      0.00000000	      0.00000000
      1.31500000	     -7.74280871	      9.43748546	     -1.34233487	     -2.33397082	      0.97559024	      0.26400300	    -25.76959908	     -9.35054570	     -1.32473764	     21.51431719	      0.37549567	    -23.96881701	      0.00000000	      0.00000000	     48.78863797	      5.58887818	     -6.96191324	     41.53875458	      0.72498803	      9.79630908	      0.00000000	      0.00000000	    -21.81597152	    -16.89951477	     15.44064019	      3.03218245	    -25.92635337	     15.13238826	    125.64101416	     88.45722972	      0.00000000	      0.00000000	    -42.64827678	    -23.35553450	    -21.02744328	    112.25557589	      1.34387740	      0.00000000	      0.00000000
      1.32000000	     -7.19086109	      8.85668436	     -1.12462277	     -2.30893444	      0.97661679	      0.26350927	    -26.21499477	     -8.59918319	     -0.91879301	     23.68546400	      0.41338933	    -23.50055958	      0.00000000	      0.00000000	     46.99270272	      5.34470490	     -6.52137007	     38.51232195	      0.67216682	     10.54178172	      0.00000000	      0.00000000	    -22.41565264	    -16.44279181	     15.42001191	      1.72481169	    -26.35521281	     14.96833724	    123.93783349	     88.46176879	      0.00000000	      0.00000000	    -41.50468047	    -23.38693054	    -20.50140408	    112.56536320	      1.34410416	      0.00000000	      0.00000000
